<!-- Secure Node Network Background -->
<svg xmlns="http://www.w3.org/2000/svg" viewBox="0 0 1600 520" width="100%" height="100%" preserveAspectRatio="xMidYMid slice" role="img" aria-label="Secure network background">
  <defs>
    <!-- Gradient background -->
    <linearGradient id="netBg" x1="0" y1="0" x2="1" y2="1">
      <stop offset="0%" stop-color="#3c005a"/>
      <stop offset="50%" stop-color="#5a1a90"/>
      <stop offset="100%" stop-color="#7338A8"/>
    </linearGradient>

    <!-- Node glow -->
    <filter id="glow" x="-50%" y="-50%" width="200%" height="200%">
      <feGaussianBlur stdDeviation="2" result="b"/>
      <feMerge>
        <feMergeNode in="b"/>
        <feMergeNode in="SourceGraphic"/>
      </feMerge>
    </filter>

    <!-- Fade edges -->
    <radialGradient id="fadeNet" cx="50%" cy="50%" r="70%">
      <stop offset="0%" stop-color="white" stop-opacity="1"/>
      <stop offset="100%" stop-color="white" stop-opacity="0"/>
    </radialGradient>
    <mask id="fadeMaskNet">
      <rect width="1600" height="520" fill="url(#fadeNet)"/>
    </mask>
  </defs>

  <!-- Background -->
  <rect width="1600" height="520" fill="url(#netBg)"/>

  <!-- Network lines -->
  <g stroke="#ffffff" stroke-opacity="0.12" stroke-width="1" mask="url(#fadeMaskNet)">
    <line x1="200" y1="180" x2="450" y2="120"/>
    <line x1="450" y1="120" x2="700" y2="220"/>
    <line x1="700" y1="220" x2="1050" y2="160"/>
    <line x1="1050" y1="160" x2="1320" y2="240"/>
    <line x1="1320" y1="240" x2="1500" y2="180"/>

    <line x1="300" y1="300" x2="520" y2="260"/>
    <line x1="520" y1="260" x2="900" y2="320"/>
    <line x1="900" y1="320" x2="1280" y2="360"/>
    <line x1="1280" y1="360" x2="1500" y2="280"/>

    <line x1="450" y1="120" x2="520" y2="260"/>
    <line x1="700" y1="220" x2="900" y2="320"/>
    <line x1="1050" y1="160" x2="1280" y2="360"/>
  </g>

  <!-- Glowing secure nodes -->
  <g filter="url(#glow)" fill="#ffffff" fill-opacity="0.9">
    <circle cx="200" cy="180" r="2.2"/>
    <circle cx="450" cy="120" r="2.6"/>
    <circle cx="700" cy="220" r="2.5"/>
    <circle cx="900" cy="320" r="2.2"/>
    <circle cx="1050" cy="160" r="2.8"/>
    <circle cx="1280" cy="360" r="2.4"/>
    <circle cx="1320" cy="240" r="2.3"/>
    <circle cx="1500" cy="180" r="2.1"/>
  </g>
</svg>
