<!-- Futuristic Wave Mesh Background -->
<svg xmlns="http://www.w3.org/2000/svg" viewBox="0 0 1600 520" width="100%" height="100%" preserveAspectRatio="xMidYMid slice" role="img" aria-label="Futuristic wave mesh background">
  <defs>
    <!-- Gradient backdrop -->
    <linearGradient id="meshBg" x1="0" y1="0" x2="1" y2="1">
      <stop offset="0%" stop-color="#3c005a"/>
      <stop offset="50%" stop-color="#5a1a90"/>
      <stop offset="100%" stop-color="#7338A8"/>
    </linearGradient>

    <!-- Subtle wave gradient stroke -->
    <linearGradient id="waveGrad" x1="0" y1="0" x2="1" y2="0">
      <stop offset="0%" stop-color="#ffffff" stop-opacity="0.25"/>
      <stop offset="100%" stop-color="#ffffff" stop-opacity="0.05"/>
    </linearGradient>

    <!-- Fading mask -->
    <radialGradient id="fadeMesh" cx="50%" cy="50%" r="75%">
      <stop offset="0%" stop-color="white" stop-opacity="1"/>
      <stop offset="90%" stop-color="white" stop-opacity="0"/>
    </radialGradient>
    <mask id="fadeMaskMesh">
      <rect width="1600" height="520" fill="url(#fadeMesh)"/>
    </mask>
  </defs>

  <!-- Base background -->
  <rect width="1600" height="520" fill="url(#meshBg)"/>

  <!-- Wavy mesh lines -->
  <g mask="url(#fadeMaskMesh)">
    <!-- Each path is a sine-like wave -->
    <path d="M0 100 Q200 50 400 100 T800 100 T1200 100 T1600 100" stroke="url(#waveGrad)" stroke-width="1.2" fill="none"/>
    <path d="M0 160 Q250 110 500 160 T1000 160 T1500 160 T2000 160" stroke="url(#waveGrad)" stroke-width="1" fill="none"/>
    <path d="M0 220 Q220 260 440 220 T880 220 T1320 220 T1760 220" stroke="url(#waveGrad)" stroke-width="0.9" fill="none"/>
    <path d="M0 280 Q180 340 360 280 T720 280 T1080 280 T1440 280 T1800 280" stroke="url(#waveGrad)" stroke-width="0.8" fill="none"/>
    <path d="M0 340 Q250 390 500 340 T1000 340 T1500 340 T2000 340" stroke="url(#waveGrad)" stroke-width="0.7" fill="none"/>
    <path d="M0 400 Q200 460 400 400 T800 400 T1200 400 T1600 400" stroke="url(#waveGrad)" stroke-width="0.6" fill="none"/>
  </g>

  <!-- Optional glow accent lines (subtle) -->
  <path d="M0 260 Q300 210 600 260 T1200 260 T1800 260" stroke="#ffffff" stroke-opacity="0.08" stroke-width="1.5" fill="none"/>
  <path d="M0 310 Q300 370 600 310 T1200 310 T1800 310" stroke="#ffffff" stroke-opacity="0.06" stroke-width="1.2" fill="none"/>
</svg>
